<?xml version="1.0" encoding="UTF-8"?>
<svg version="1.1" xmlns="http://www.w3.org/2000/svg" width="1080" height="1080">
<path d="M0 0 C8.87169782 7.33727128 16.84945417 15.65062243 24.97042623 23.79527442 C27.48922308 26.31918094 30.01385382 28.83724137 32.53771764 31.35607916 C36.95274273 35.76390483 41.36406566 40.17540815 45.77293491 44.58939075 C52.32874777 51.15278626 58.89028876 57.71043307 65.45294542 64.26698465 C77.1728824 75.97640393 88.88710851 87.69152316 100.59889596 99.40909301 C110.84252812 109.65775792 121.08801916 119.90455993 131.33536243 130.1495142 C132.01530257 130.82930156 132.6952427 131.50908892 133.39578708 132.2094759 C136.15584514 134.96891129 138.91591026 137.72833961 141.675987 140.4877563 C167.55299184 166.35864648 193.42416617 192.23536021 219.29272861 218.1146917 C242.28917149 241.12063509 265.29079259 264.12138918 288.29676342 287.11780453 C314.14257683 312.95291881 339.98516927 338.79124793 365.8225401 364.63480574 C368.57412229 367.38702938 371.32571237 370.13924514 374.07730579 372.89145756 C374.75482118 373.56913109 375.43233656 374.24680463 376.13038271 374.94501373 C386.37666622 385.19357542 396.6254214 395.439661 406.87536716 405.68455982 C418.51897971 417.32246778 430.15904047 428.96391489 441.79436006 440.61011421 C448.31219814 447.13384511 454.832802 453.65478292 461.35734571 460.17180751 C465.70707147 464.51707122 470.05319173 468.86591839 474.39631249 473.21778382 C476.87601997 475.70227937 479.35732745 478.18512037 481.84299495 480.66365432 C484.51091387 483.32556976 487.17271453 485.99345014 489.83294487 488.66304588 C490.61753416 489.44295284 491.40212345 490.2228598 492.21048817 491.0264003 C492.91147754 491.7323967 493.61246691 492.43839311 494.33469838 493.16578335 C494.94492913 493.77614962 495.55515989 494.38651589 496.18388249 495.01537811 C497.4703474 496.5521307 497.4703474 496.5521307 497.4703474 498.5521307 C498.00015209 498.75580257 498.52995678 498.95947445 499.07581615 499.1693182 C502.51114386 501.15317792 505.02126492 503.85460737 507.7828474 506.6771307 C508.32618725 507.22111507 508.86952709 507.76509945 509.42933178 508.3255682 C512.19352953 511.11913759 514.84198111 513.96612876 517.38076305 516.96594906 C522.72228981 523.08794224 528.53976719 528.75273742 534.29041576 534.48572445 C535.58228725 535.77731345 536.87393775 537.0691235 538.16538525 538.36113644 C541.65229398 541.84833074 545.14226574 545.33244463 548.63281608 548.81599331 C552.28745426 552.46435793 555.93923935 556.11557608 559.59133434 559.76648617 C566.49875088 566.67080116 573.40871139 573.5725642 580.31960064 580.47340298 C588.1910032 588.33360778 596.0595486 596.19667013 603.92786109 604.05996799 C620.10552367 620.22719283 636.28675213 636.39084472 652.4703474 652.5521307 C659.11065362 649.54766712 662.50627768 642.43984976 666.4703474 636.5521307 C667.04285229 635.70296078 667.61535717 634.85379086 668.20521069 633.97888851 C677.24318549 620.50023454 685.64037365 606.76402938 693.4703474 592.5521307 C693.86383373 591.85023617 694.25732006 591.14834164 694.66273022 590.42517757 C747.53037186 496.04156107 759.74981697 385.34490086 730.44300365 268.2552557 C724.42952194 247.5055074 717.19938948 227.31863731 708.4703474 207.5521307 C708.0578474 206.60902035 707.6453474 205.66591 707.2203474 204.69422054 C699.32386545 186.6957939 690.33530848 169.53116249 680.3453474 152.6146307 C679.68840893 151.50128353 679.03147045 150.38793636 678.35462475 149.2408514 C673.94989667 141.85250598 669.30035589 134.66858318 664.4703474 127.5521307 C663.97454174 126.80906673 663.47873608 126.06600277 662.967906 125.30042171 C661.73469407 123.45605449 660.48148726 121.6274647 659.2203474 119.8021307 C658.60933178 118.88174007 658.60933178 118.88174007 657.9859724 117.9427557 C656.66713469 115.98227117 656.66713469 115.98227117 654.4703474 113.5521307 C653.1503474 113.5521307 651.8303474 113.5521307 650.4703474 113.5521307 C650.22051098 114.1286639 649.97067455 114.70519711 649.71326733 115.29920101 C648.29676708 117.86676421 646.68112774 119.55202838 644.58362865 121.5990057 C643.80954662 122.3621307 643.03546459 123.1252557 642.23792553 123.9115057 C641.42774975 124.70041195 640.61757397 125.4893182 639.7828474 126.3021307 C633.33237463 132.57325876 633.33237463 132.57325876 627.2828474 139.2240057 C622.19726512 145.14772497 616.60692075 150.60156522 611.08924389 156.11853695 C609.13981959 158.07017902 607.19857116 160.0297274 605.25745678 161.9896307 C604.02031491 163.22970141 602.78270205 164.46930247 601.54456615 165.7083807 C600.96438229 166.29575008 600.38419842 166.88311947 599.78643322 167.48828793 C595.69920996 171.5521307 595.69920996 171.5521307 593.4703474 171.5521307 C593.23404613 172.11512875 592.99774487 172.67812679 592.75428295 173.25818539 C591.17227634 176.0846798 589.24170731 177.98817669 586.92737865 180.2552557 C585.56322826 181.60297054 585.56322826 181.60297054 584.17151928 182.97791195 C583.20900209 183.91970001 582.24610921 184.86110425 581.2828474 185.8021307 C575.62882123 191.35080235 570.0416074 196.87254624 564.88953686 202.89490414 C563.21397041 204.85150916 561.46858666 206.72018841 559.6578474 208.5521307 C559.09452709 209.1296307 558.53120678 209.7071307 557.95081615 210.3021307 C556.4703474 211.5521307 556.4703474 211.5521307 554.4703474 211.5521307 C554.2331599 212.11416195 553.9959724 212.6761932 553.7515974 213.2552557 C552.18087044 216.07107112 550.25563276 218.03168486 547.9703474 220.3021307 C546.77925365 221.50095882 546.77925365 221.50095882 545.5640974 222.7240057 C543.4703474 224.5521307 543.4703474 224.5521307 541.4703474 224.5521307 C541.06981403 225.44113064 541.06981403 225.44113064 540.66118908 226.34809017 C539.44960096 228.59052875 538.22439222 230.03409501 536.41688061 231.81677914 C535.79896145 232.43131954 535.18104229 233.04585995 534.54439831 233.67902279 C533.87671932 234.33324215 533.20904034 234.98746151 532.52112865 235.6615057 C531.83028683 236.34714596 531.139445 237.03278622 530.42766857 237.73920345 C528.21742602 239.93165147 526.00063749 242.1173198 523.7828474 244.3021307 C521.58373437 246.4734619 519.38615374 248.64628734 517.19158459 250.82221127 C515.82756508 252.17415526 514.46088347 253.52342091 513.09102917 254.86945248 C509.17987746 258.74029456 505.53010608 262.72736163 502.02691174 266.97309017 C500.4703474 268.5521307 500.4703474 268.5521307 497.4703474 269.5521307 C496.76911572 270.86761401 496.10648989 272.20396715 495.4703474 273.5521307 C493.95493603 275.32150936 493.95493603 275.32150936 492.15735912 277.12390804 C491.4826054 277.80496609 490.80785168 278.48602413 490.11265087 279.1877203 C489.3824876 279.91383511 488.65232433 280.63994991 487.9000349 281.3880682 C487.14497662 282.14503994 486.38991833 282.90201168 485.61197948 283.68192196 C484.01221542 285.28304663 482.40992442 286.8816499 480.80530834 288.47791195 C478.36844542 290.90413355 475.94234564 293.34074385 473.5172224 295.7786932 C471.95796686 297.33662596 470.39809041 298.89393758 468.8375349 300.4505682 C468.11951702 301.17263454 467.40149914 301.89470089 466.66172314 302.63864803 C454.72798413 314.46392843 441.63261016 321.58903879 424.4703474 321.5521307 C409.64726897 320.51462291 397.76919087 313.9960283 387.4703474 303.5521307 C378.60744497 291.52614294 374.91006476 277.96335035 376.9312849 263.18103695 C379.01388556 251.99624639 382.95714534 243.96144626 390.7359724 235.6693182 C391.25471432 235.11206554 391.77345623 234.55481289 392.30791759 233.98067379 C398.95629763 226.89327001 405.87665594 220.07408727 412.7828474 213.2396307 C415.40696912 210.64240006 418.02752976 208.04164694 420.64612865 205.43884945 C421.22856838 204.86470806 421.81100811 204.29056667 422.41109753 203.69902706 C425.3581456 200.76932031 428.17701317 197.78075742 430.89368725 194.63538265 C434.59544086 190.3549622 438.52391506 186.33693703 442.52112865 182.3333807 C443.2611462 181.59003475 444.00116375 180.8466888 444.76360607 180.08081722 C446.31274108 178.52665844 447.86319764 176.9738159 449.41492748 175.42224789 C451.79891557 173.03604763 454.17476211 170.64192811 456.55042553 168.2474432 C458.06100457 166.73393449 459.57205517 165.22089624 461.08362865 163.7083807 C461.7950552 162.98976864 462.50648174 162.27115658 463.23946667 161.53076839 C463.89742733 160.87588436 464.55538799 160.22100033 465.23328686 159.54627132 C465.81173855 158.96639462 466.39019024 158.38651791 466.98617077 157.78906918 C468.4703474 156.5521307 468.4703474 156.5521307 470.4703474 156.5521307 C470.7075349 155.99009945 470.9447224 155.4280682 471.1890974 154.8490057 C472.75982437 152.03319028 474.68506205 150.07257654 476.9703474 147.8021307 C478.16144115 146.60330257 478.16144115 146.60330257 479.3765974 145.3802557 C481.4703474 143.5521307 481.4703474 143.5521307 483.4703474 143.5521307 C483.83156689 142.70086605 483.83156689 142.70086605 484.20008373 141.83240414 C485.72660148 139.09212434 487.55235707 137.26173779 489.79456615 135.0677557 C490.65888256 134.21439632 491.52319897 133.36103695 492.41370678 132.4818182 C493.31927319 131.59752132 494.22483959 130.71322445 495.1578474 129.8021307 C500.64170064 124.4259604 506.03584287 119.06192399 511.03357983 113.22693539 C512.71618466 111.26556425 514.46632371 109.38992516 516.2828474 107.5521307 C516.84616772 106.9746307 517.40948803 106.3971307 517.98987865 105.8021307 C519.4703474 104.5521307 519.4703474 104.5521307 521.4703474 104.5521307 C521.79988163 103.73412991 521.79988163 103.73412991 522.13607311 102.89960384 C523.90350955 99.79004115 526.28952489 97.47872623 528.81873608 94.99256039 C529.3637376 94.4488731 529.90873913 93.90518581 530.47025585 93.34502316 C532.27172269 91.55004204 534.08006093 89.76214575 535.88831615 87.9740057 C537.14715194 86.72144551 538.4054705 85.46836531 539.66329479 84.21478939 C542.97887639 80.91251181 546.29996814 77.61583661 549.62269115 74.32074642 C554.92388575 69.06263675 560.21851053 63.79793535 565.50970936 58.52976894 C567.35006508 56.69954616 569.19384802 54.87283058 571.03802013 53.04645443 C576.24710193 47.87458426 581.39828132 42.71609947 586.14686108 37.10980892 C588.09062951 34.82208921 590.17017172 32.68330617 592.2828474 30.5521307 C593.03179272 29.7890057 593.78073803 29.0258807 594.55237865 28.2396307 C596.4703474 26.5521307 596.4703474 26.5521307 598.4703474 26.5521307 C598.7384724 25.9127557 599.0065974 25.2733807 599.2828474 24.6146307 C600.4703474 22.5521307 600.4703474 22.5521307 603.4703474 21.5521307 C604.15521466 20.22805401 604.81904943 18.89303829 605.4703474 17.5521307 C607.4703474 15.3021307 607.4703474 15.3021307 609.4703474 13.5521307 C610.1303474 13.5521307 610.7903474 13.5521307 611.4703474 13.5521307 C611.7384724 12.9127557 612.0065974 12.2733807 612.2828474 11.6146307 C613.4703474 9.5521307 613.4703474 9.5521307 616.4703474 8.5521307 C616.76683178 7.9540057 617.06331615 7.3558807 617.3687849 6.7396307 C621.31629071 -1.09938791 631.7354633 -5.64861334 639.5953474 -8.6353693 C653.42962531 -11.53610499 667.90606673 -11.12165634 680.15687084 -3.38243961 C686.89957639 1.12849969 693.59143696 5.95316837 699.4703474 11.5521307 C699.4703474 12.2121307 699.4703474 12.8721307 699.4703474 13.5521307 C700.00530834 13.75322445 700.54026928 13.9543182 701.09144115 14.1615057 C704.48376525 16.14453916 706.91152324 18.92496343 709.5328474 21.8021307 C710.10648022 22.42692318 710.68011303 23.05171566 711.27112865 23.69544125 C716.5116065 29.47286517 721.34573491 35.51023216 726.06360912 41.71716976 C727.49333013 43.58210955 728.94922425 45.4237759 730.41175365 47.2630682 C743.62965903 64.02013688 755.71879047 82.06759541 766.33948803 100.58191586 C767.69068224 102.93600422 769.05783106 105.2806138 770.4234724 107.62634945 C776.11967427 117.4558677 781.50842341 127.33080525 786.4703474 137.5521307 C787.08360138 138.76570361 787.69958532 139.97790006 788.31800365 141.18884945 C803.97468575 171.88791726 817.24078929 204.31157657 826.4703474 237.5521307 C826.73073803 238.47123226 826.99112865 239.39033382 827.2594099 240.33728695 C852.29917795 329.2123435 855.22159876 421.43288271 824.4703474 540.5521307 C823.98658642 542.08402035 823.98658642 542.08402035 823.49305248 543.64685726 C813.95982117 573.6425137 801.76234796 602.52738178 787.4703474 630.5521307 C786.46840235 632.55115699 785.46810463 634.55101088 784.4703474 636.5521307 C783.80368074 637.88546403 783.13701407 639.21879737 782.4703474 640.5521307 C781.8103474 640.5521307 781.1503474 640.5521307 780.4703474 640.5521307 C780.39300365 641.21599789 780.3156599 641.87986507 780.2359724 642.56384945 C779.20740252 646.57842069 777.29311623 649.79933416 775.2203474 653.3646307 C774.83749584 654.03816586 774.45464428 654.71170101 774.06019115 655.40564632 C771.31752321 660.19843562 768.42805822 664.8896362 765.4703474 669.5521307 C765.06380932 670.19497005 764.65727123 670.83780941 764.23841381 671.50012875 C754.62043299 686.65005721 744.33542291 701.27297626 733.4703474 715.5521307 C732.93538647 716.31912289 732.40042553 717.08611507 731.84925365 717.87634945 C731.39421459 718.42935726 730.93917553 718.98236507 730.4703474 719.5521307 C729.8103474 719.5521307 729.1503474 719.5521307 728.4703474 719.5521307 C728.24733959 720.25724789 728.02433178 720.96236507 727.79456615 721.68884945 C726.18382173 725.17166851 723.91211484 727.63574285 721.2828474 730.3646307 C720.35077719 731.34928598 719.41980694 732.33498353 718.48987865 733.32166195 C717.75861767 734.09437435 717.75861767 734.09437435 717.01258373 734.88269711 C715.35223787 736.67998142 713.75474502 738.52252467 712.1578474 740.37634945 C708.1747625 744.95381049 703.94529044 749.26096916 699.6578474 753.5521307 C698.89536694 754.32685726 698.13288647 755.10158382 697.34730053 755.89978695 C696.25385326 756.99613461 696.25385326 756.99613461 695.13831615 758.1146307 C694.48113598 758.77591976 693.8239558 759.43720882 693.14686108 760.11853695 C691.4703474 761.5521307 691.4703474 761.5521307 689.4703474 761.5521307 C689.4703474 762.2121307 689.4703474 762.8721307 689.4703474 763.5521307 C687.8203474 764.2121307 686.1703474 764.8721307 684.4703474 765.5521307 C684.4703474 766.2121307 684.4703474 766.8721307 684.4703474 767.5521307 C670.87319299 774.86836607 656.39919957 778.64386801 641.0328474 774.3646307 C639.49827338 773.79626995 637.97637087 773.19232186 636.4703474 772.5521307 C635.68917553 772.25822445 634.90800365 771.9643182 634.1031599 771.6615057 C617.2888494 764.46304689 603.59953553 745.82738347 590.77760579 732.994058 C587.67656644 729.89137208 584.57262275 726.79159379 581.46906549 723.69142687 C576.03970949 718.26720432 570.61220177 712.84113794 565.18592739 707.41383266 C557.11729678 699.3436729 549.0458165 691.27636772 540.97380746 683.20958736 C525.72126985 667.96670431 510.47214592 652.72040927 495.22414812 637.47298507 C483.45648918 625.70578593 471.68803063 613.93938705 459.91901112 602.1735487 C456.52976847 598.78520359 453.14052969 595.39685462 449.75129205 592.00850451 C448.90872454 591.16615805 448.06615703 590.32381159 447.19805717 589.45593947 C423.51296462 565.77699737 399.82897219 542.09695539 376.14717674 518.41471577 C374.80889266 517.07640831 374.80889266 517.07640831 373.44357253 515.71106434 C368.92165162 511.18906033 364.39973867 506.66704834 359.87782749 502.1450346 C358.53072978 500.79790697 358.53072978 500.79790697 357.15641797 499.42356464 C355.3403189 497.60742513 353.5242205 495.79128493 351.70812278 493.97514406 C323.4134417 465.67984938 295.11469455 437.38862674 266.8128767 409.10047054 C235.01726534 377.32020102 203.22501402 345.53657538 171.43753797 313.74816859 C168.05239649 310.36295248 164.66724205 306.97774933 161.28207874 303.59255505 C160.44856036 302.75902501 159.61504197 301.92549497 158.75626545 301.06670644 C145.31689124 287.6273014 131.87430547 274.1911131 118.43061615 260.75602471 C104.94003883 247.27390044 91.45317597 233.78806934 77.97012194 220.29842119 C69.95036442 212.27495347 61.92781803 204.25429769 53.90132565 196.23756724 C48.55053014 190.89273279 43.20333004 185.5443198 37.85912479 180.19289588 C34.80768776 177.13754453 31.7546409 174.08384793 28.69723751 171.03446595 C25.92201674 168.26646322 23.15134783 165.49399143 20.38440751 162.71771208 C19.38311653 161.71468421 18.38010706 160.71336854 17.37527867 159.71388445 C16.02169956 158.36702973 14.6747618 157.01350998 13.3282544 155.65958536 C12.57746464 154.90888382 11.82667488 154.15818228 11.05313392 153.38473221 C9.4703474 151.5521307 9.4703474 151.5521307 9.4703474 149.5521307 C8.4803474 149.2221307 7.4903474 148.8921307 6.4703474 148.5521307 C6.4703474 147.8921307 6.4703474 147.2321307 6.4703474 146.5521307 C5.4803474 146.2221307 4.4903474 145.8921307 3.4703474 145.5521307 C3.4703474 144.8921307 3.4703474 144.2321307 3.4703474 143.5521307 C2.8103474 143.5521307 2.1503474 143.5521307 1.4703474 143.5521307 C0.16346264 142.2240057 0.16346264 142.2240057 -1.40855885 140.3021307 C-6.43146735 134.39497152 -11.96670014 129.0076157 -17.4671526 123.5521307 C-18.54355913 122.48075183 -19.61973274 121.40913888 -20.69566822 120.33728695 C-23.30432004 117.73953432 -25.91609731 115.14495108 -28.5296526 112.5521307 C-39.59083559 123.42901787 -47.43608664 137.41153133 -55.5296526 150.5521307 C-55.94682545 151.21986507 -56.3639983 151.88759945 -56.79381275 152.5755682 C-105.5074052 230.74064491 -122.3851405 322.71829422 -109.7171526 482.8646307 C-102.97082426 511.3398498 -93.59356688 538.90278469 -81.5296526 565.5521307 C-81.09169361 566.51989437 -80.65373463 567.48765804 -80.20250416 568.48474789 C-66.28313432 598.94626225 -49.19845772 627.93636654 -27.5296526 653.5521307 C-22.89365272 649.67963374 -18.50240621 645.66033794 -14.25890064 641.36316586 C-13.67587681 640.77707546 -13.09285297 640.19098507 -12.49216175 639.58713436 C-11.23997608 638.32785159 -9.9889239 637.06744086 -8.73891735 635.80599499 C-6.76208598 633.81164836 -4.78162319 631.82097399 -2.80011463 629.83127499 C2.82827608 624.17852406 8.450858 618.52002036 14.06922436 612.85730648 C17.51602316 609.38380749 20.96761086 605.91512825 24.42224216 602.44941998 C25.73709913 601.1283412 27.05005384 599.80536635 28.36108875 598.4804945 C30.18509861 596.63738176 32.01508113 594.80040682 33.84656811 592.96472836 C34.38942455 592.41311031 34.932281 591.86149227 35.49158764 591.29315853 C39.24244849 587.5521307 39.24244849 587.5521307 41.4703474 587.5521307 C41.7075349 586.99009945 41.9447224 586.4280682 42.1890974 585.8490057 C43.75982437 583.03319028 45.68506205 581.07257654 47.9703474 578.8021307 C48.7644099 578.00291195 49.5584724 577.2036932 50.3765974 576.3802557 C52.4703474 574.5521307 52.4703474 574.5521307 54.4703474 574.5521307 C54.68057034 574.01626339 54.89079327 573.48039608 55.10738659 572.92829037 C56.99608564 569.63556878 59.59407568 567.17534975 62.27772045 564.53357601 C62.87148983 563.94112087 63.46525921 563.34866573 64.0770216 562.73825741 C66.04081452 560.7809537 68.01148645 558.83072434 69.98206615 556.8802557 C71.35300279 555.51559369 72.72342273 554.15041244 74.0933485 552.78473568 C77.70484868 549.18654293 81.32186271 545.59394862 84.94050121 542.00293636 C90.71545386 536.27106259 96.48383114 530.5325931 102.24879932 524.79067898 C104.25535324 522.79427035 106.26533098 520.80135838 108.27569103 518.80878353 C113.61479 513.50476202 118.89171918 508.22757206 123.76836681 502.4891119 C127.60173314 498.12645432 131.76782799 494.06772827 135.86487865 489.95447445 C136.35347551 489.46305021 136.84207237 488.97162598 137.3454752 488.4653101 C139.92844625 485.86746315 142.5141897 483.27241565 145.10242748 480.67981625 C147.7481779 478.02857988 150.38451059 475.36818261 153.01875305 472.70551872 C155.07193499 470.63355946 157.13194422 468.56848774 159.19377232 466.50513554 C160.16772163 465.52819615 161.139215 464.54880093 162.10799122 463.56673145 C169.73486538 455.84266208 177.59306391 448.66260284 187.8453474 444.6771307 C188.82245678 444.28783382 189.79956615 443.89853695 190.8062849 443.4974432 C202.92063797 439.19880179 216.63737358 440.93728431 228.1109724 446.29822445 C242.03771122 453.69968664 249.99771806 464.34145677 255.3531599 478.96228695 C258.80588339 491.97078739 256.46069285 505.36137245 250.19300365 517.0599432 C245.53528043 524.63514141 238.87566811 530.53168551 232.5328474 536.6771307 C230.64509554 538.5219736 228.76035435 540.36979152 226.87816906 542.22031307 C225.71543306 543.3618293 224.54918312 544.49978334 223.37856579 545.6332159 C220.5309184 548.41246799 217.83057555 551.25012311 215.23890209 554.27039242 C210.60575707 559.63151916 205.58130569 564.60547096 200.57581615 569.6146307 C199.53678925 570.65687741 198.49783484 571.69919641 197.45894909 572.74158382 C195.29824942 574.90822615 193.13553924 577.0728381 190.97156811 579.23621273 C188.19452028 582.013158 185.42447092 584.79697657 182.6560421 587.58251095 C180.52082417 589.72880877 178.38111604 591.87058542 176.24008656 594.01108456 C175.21577726 595.03657552 174.19309285 596.06369214 173.17205906 597.09244442 C171.75302389 598.52121862 170.32706782 599.94310918 168.90076733 601.3646307 C167.68667439 602.58086117 167.68667439 602.58086117 166.44805431 603.82166195 C164.4703474 605.5521307 164.4703474 605.5521307 162.4703474 605.5521307 C162.21064159 606.13649899 161.95093578 606.72086727 161.6833601 607.32294369 C160.38362247 609.71150752 158.97939196 611.29688468 157.06214428 613.21912289 C156.36802441 613.91954708 155.67390453 614.61997128 154.95875072 615.34162045 C154.20976513 616.08655758 153.46077953 616.83149471 152.6890974 617.5990057 C151.91980907 618.37020748 151.15052074 619.14140926 150.35792065 619.9359808 C148.73297913 621.56228199 147.10551441 623.18606546 145.4757185 624.80750179 C142.97289565 627.29959338 140.48094178 629.80219662 137.98987865 632.30603695 C136.41109273 633.88350182 134.8316868 635.46034646 133.2515974 637.0365057 C132.50261181 637.78953976 131.75362621 638.54257381 130.98194408 639.31842709 C129.94076427 640.35015041 129.94076427 640.35015041 128.87855053 641.40271664 C127.96160412 642.31727627 127.96160412 642.31727627 127.02613354 643.25031185 C125.4703474 644.5521307 125.4703474 644.5521307 123.4703474 644.5521307 C123.2331599 645.11416195 122.9959724 645.6761932 122.7515974 646.2552557 C121.18087044 649.07107112 119.25563276 651.03168486 116.9703474 653.3021307 C116.1762849 654.10134945 115.3822224 654.9005682 114.5640974 655.7240057 C112.4703474 657.5521307 112.4703474 657.5521307 110.4703474 657.5521307 C110.22286471 658.12409774 109.97538202 658.69606478 109.72039986 659.28536415 C108.27068868 661.91417929 106.58796158 663.69219784 104.46950817 665.82039547 C103.21448498 667.08821362 103.21448498 667.08821362 101.93410778 668.38164425 C101.01415524 669.30069042 100.09420269 670.2197366 99.1463728 671.16663265 C98.16846365 672.15052827 97.19096536 673.13483239 96.21384716 674.11951351 C93.55910876 676.79191739 90.89791497 679.45780162 88.23496842 682.12202382 C86.56836601 683.79004928 84.90319658 685.45949148 83.23853397 687.12945271 C77.42137636 692.96511983 71.59906729 698.79558977 65.77186108 704.6212225 C60.35737375 710.03451158 54.95410454 715.45881842 49.55606562 720.88850528 C44.9100031 725.56082414 40.25615469 730.22529211 35.59630865 734.8838641 C32.81853552 737.66112989 30.0438824 740.44133804 27.27703571 743.22949314 C24.6684067 745.85765993 22.05011288 748.47581781 19.42449093 751.08700466 C18.01842913 752.49001794 16.62215699 753.90282148 15.22634411 755.31603146 C3.44321819 766.98449214 -9.63839395 774.27351261 -26.4046526 774.8646307 C-53.91031634 774.13401151 -75.2917652 750.42141968 -93.06920338 731.87146664 C-99.56241999 724.97946531 -105.53142072 717.77197935 -111.25035572 710.22986507 C-112.5003409 708.59057153 -113.76893438 706.96783102 -115.0452776 705.3490057 C-173.32895225 631.17394074 -208.41294573 536.94198098 -218.5296526 443.5521307 C-218.64824635 442.46400082 -218.7668401 441.37587093 -218.8890276 440.25476742 C-229.52959694 336.27170356 -208.79374966 229.7657276 -108.5296526 49.5521307 C-108.06849049 48.95062191 -107.60732838 48.34911312 -107.13219166 47.72937679 C-101.8972235 40.91723051 -96.51233986 34.23949238 -90.9671526 27.6771307 C-90.45410572 27.06337582 -89.94105885 26.44962093 -89.4124651 25.81726742 C-88.16298593 24.35603353 -86.85150057 22.9482398 -85.5296526 21.5521307 C-84.8696526 21.5521307 -84.2096526 21.5521307 -83.5296526 21.5521307 C-83.2821526 20.99009945 -83.0346526 20.4280682 -82.7796526 19.8490057 C-81.31690392 17.16120501 -79.56160386 15.08807588 -77.5296526 12.8021307 C-76.8284026 12.00291195 -76.1271526 11.2036932 -75.4046526 10.3802557 C-73.5296526 8.5521307 -73.5296526 8.5521307 -71.5296526 8.5521307 C-71.1996526 7.5621307 -70.8696526 6.5721307 -70.5296526 5.5521307 C-50.54687605 -14.13071675 -22.39114302 -17.70464297 0 0 Z " fill="#FBFBFB" transform="translate(226.52965259552002,155.44786930084229)"/>
<path d="M0 0 C0.66 0.33 1.32 0.66 2 1 C-4.93 7.93 -11.86 14.86 -19 22 C-19 17.89253434 -17.36039564 16.80245139 -14.625 13.8125 C-13.81289062 12.91144531 -13.00078125 12.01039063 -12.1640625 11.08203125 C-10 9 -10 9 -8 9 C-7.67 8.01 -7.34 7.02 -7 6 C-5.37109375 4.39453125 -5.37109375 4.39453125 -3.4375 2.8125 C-2.47650391 2.01779297 -2.47650391 2.01779297 -1.49609375 1.20703125 C-1.00238281 0.80871094 -0.50867188 0.41039062 0 0 Z M-22 22 C-20 23 -20 23 -20 23 Z " fill="#9B9B9B" transform="translate(163,155)"/>
</svg>
